<svg width="24" height="24" viewBox="0 0 24 24" fill="none" xmlns="http://www.w3.org/2000/svg">
<path d="M5.82722 6.02989C5.57722 6.07989 5.32422 6.20788 5.17122 6.43688C4.86522 6.89387 4.9942 7.53788 5.4532 7.84288L11.4532 11.8429C11.7882 12.0659 12.2422 12.0659 12.5772 11.8429L18.5773 7.84288C19.0363 7.53788 19.1652 6.89387 18.8592 6.43688C18.5532 5.97888 17.9112 5.84989 17.4532 6.15489L12.0152 9.77988L6.57723 6.15489C6.34823 6.00289 6.07823 5.97989 5.82722 6.02989ZM5.82722 12.0299C5.57722 12.0799 5.32422 12.2079 5.17122 12.4369C4.86522 12.8939 4.9942 13.5379 5.4532 13.8429L11.4532 17.8429C11.7882 18.0659 12.2422 18.0659 12.5772 17.8429L18.5773 13.8429C19.0363 13.5379 19.1652 12.8939 18.8592 12.4369C18.5532 11.9789 17.9112 11.8499 17.4532 12.1549L12.0152 15.7799L6.57723 12.1549C6.34823 12.0029 6.07823 11.9799 5.82722 12.0299Z" fill="white" fill-opacity="0.8"/>
</svg>
